<svg version="1.0" xmlns="http://www.w3.org/2000/svg"
 width="581.000000pt" height="543.000000pt" viewBox="0 0 581.000000 543.000000"
 preserveAspectRatio="xMidYMid meet">

<g transform="translate(0.000000,543.000000) scale(0.100000,-0.100000)"
fill="#000000" stroke="none">
<path d="M3615 4999 c-258 -149 -720 -415 -1025 -592 -305 -176 -755 -436
-1000 -577 -245 -141 -583 -337 -752 -435 l-308 -177 0 -137 c0 -76 -3 -273
-7 -439 -4 -212 -3 -302 4 -302 9 0 874 499 2598 1498 l260 151 3 -687 2 -688
253 -149 c138 -82 295 -175 347 -207 l95 -56 3 770 c1 423 1 1114 0 1534 l-3
765 -470 -272z"/>
<path d="M4218 3620 l-3 -1650 -190 114 c-104 62 -336 200 -515 306 -179 106
-350 208 -382 227 -31 19 -63 33 -71 31 -29 -6 -726 -393 -724 -401 1 -5 124
-78 272 -164 149 -85 443 -255 655 -378 1435 -829 1695 -978 1712 -983 17 -4
18 64 18 2051 l0 2054 -380 222 c-209 121 -382 221 -385 221 -3 0 -6 -742 -7
-1650z"/>
<path d="M3015 3622 c-126 -73 -724 -420 -1328 -769 -603 -350 -1096 -637
-1095 -638 2 -1 181 -105 398 -230 217 -125 613 -354 880 -508 754 -435 1152
-665 1580 -912 217 -125 464 -268 548 -317 l154 -90 380 217 c209 120 376 221
371 226 -4 4 -163 97 -353 207 -190 109 -694 400 -1120 647 -426 246 -909 524
-1072 618 -164 95 -298 174 -298 177 0 3 262 149 581 325 320 176 588 325 595
330 12 8 14 79 12 430 l-3 420 -230 -133z"/>
</g>
</svg>
